#N canvas 276 357 703 491 10;
#X text 345 389 Variação máxima entre left-right 3 pontos;
#X text 309 420 3 pontos é equivalente a uma fase de 10.8 graus;
#X obj 80 251 bng 15 250 50 0 empty empty empty 17 7 0 10 -262144 -1
-1;
#X floatatom 44 250 5 0 0 0 - - -, f 5;
#X msg 155 177 reset;
#X floatatom 112 301 5 0 0 0 - - -, f 5;
#X floatatom 147 301 5 0 0 0 - - -, f 5;
#X floatatom 182 301 5 0 0 0 - - -, f 5;
#X floatatom 217 301 5 0 0 0 - - -, f 5;
#X floatatom 252 301 5 0 0 0 - - -, f 5;
#X floatatom 287 301 5 0 0 0 - - -, f 5;
#X floatatom 322 301 5 0 0 0 - - -, f 5;
#X floatatom 357 301 5 0 0 0 - - -, f 5;
#X floatatom 392 301 5 0 0 0 - - -, f 5;
#X floatatom 427 301 5 0 0 0 - - -, f 5;
#X floatatom 462 301 5 0 0 0 - - -, f 5;
#X floatatom 497 301 5 0 0 0 - - -, f 5;
#X floatatom 532 301 5 0 0 0 - - -, f 5;
#X msg 162 143 amp;
#X obj 112 202 counter, f 51;
#X obj 112 323 s fq1;
#X obj 147 323 s fq2;
#X obj 182 323 s fq3;
#X obj 217 323 s fq4;
#X obj 206 14 bng 15 250 50 0 empty empty empty 17 7 0 10 -262144 -1
-1;
#X obj 160 69 metro 300;
#X obj 227 107 metro 300;
#X msg 241 11 stop;
#X msg 201 143 silence;
#X obj 229 69 delay 150 1 msec;
#N canvas 67 59 1853 1021 backbone 0;
#X obj 200 276 +~;
#X obj 197 391 dac~;
#X floatatom 138 96 5 0 0 0 - - -, f 5;
#X obj 138 127 phasor~;
#X obj 137 191 cos~;
#X msg 138 59 20000;
#X obj 188 177 +~;
#X floatatom 202 47 5 0 0 0 - - -, f 5;
#X obj 202 76 / 100;
#X obj 202 122 vline~;
#X obj 202 145 wrap~;
#X obj 188 200 cos~;
#X obj 202 99 pack f 30;
#X obj 251 177 +~;
#X floatatom 265 47 5 0 0 0 - - -, f 5;
#X obj 265 99 pack f 30;
#X obj 265 122 vline~;
#X obj 265 145 wrap~;
#X obj 251 200 cos~;
#X obj 265 76 / 100;
#X obj 190 352 *~;
#X obj 205 324 r fq1;
#X obj 230 349 *~;
#X obj 245 325 r fq1;
#X floatatom 365 108 5 0 0 0 - - -, f 5;
#X obj 365 139 phasor~;
#X obj 364 203 cos~;
#X obj 415 189 +~;
#X floatatom 429 59 5 0 0 0 - - -, f 5;
#X obj 429 88 / 100;
#X obj 429 134 vline~;
#X obj 429 157 wrap~;
#X obj 415 212 cos~;
#X obj 429 111 pack f 30;
#X obj 498 189 +~;
#X floatatom 512 59 5 0 0 0 - - -, f 5;
#X obj 512 88 / 100;
#X obj 512 111 pack f 30;
#X obj 512 134 vline~;
#X obj 512 157 wrap~;
#X obj 498 212 cos~;
#X msg 365 71 20150;
#X floatatom 589 108 5 0 0 0 - - -, f 5;
#X obj 589 139 phasor~;
#X obj 588 203 cos~;
#X obj 639 189 +~;
#X floatatom 653 59 5 0 0 0 - - -, f 5;
#X obj 653 88 / 100;
#X obj 653 134 vline~;
#X obj 653 157 wrap~;
#X obj 639 212 cos~;
#X obj 653 111 pack f 30;
#X obj 722 189 +~;
#X floatatom 736 59 5 0 0 0 - - -, f 5;
#X obj 736 88 / 100;
#X obj 736 111 pack f 30;
#X obj 736 134 vline~;
#X obj 736 157 wrap~;
#X obj 722 212 cos~;
#X obj 665 287 +~;
#X obj 431 277 +~;
#X obj 405 392 dac~;
#X obj 388 345 *~;
#X obj 438 345 *~;
#X obj 403 322 r fq2;
#X obj 453 322 r fq2;
#X obj 666 392 dac~;
#X obj 649 345 *~;
#X obj 699 345 *~;
#X obj 664 322 r fq3;
#X obj 714 322 r fq3;
#X floatatom 805 123 5 0 0 0 - - -, f 5;
#X obj 805 154 phasor~;
#X obj 804 218 cos~;
#X obj 855 204 +~;
#X floatatom 869 74 5 0 0 0 - - -, f 5;
#X obj 869 103 / 100;
#X obj 869 149 vline~;
#X obj 869 172 wrap~;
#X obj 855 227 cos~;
#X obj 869 126 pack f 30;
#X obj 938 204 +~;
#X floatatom 952 74 5 0 0 0 - - -, f 5;
#X obj 952 103 / 100;
#X obj 952 126 pack f 30;
#X obj 952 149 vline~;
#X obj 952 172 wrap~;
#X obj 938 227 cos~;
#X obj 881 292 +~;
#X obj 886 396 dac~;
#X obj 869 349 *~;
#X obj 919 349 *~;
#X obj 884 326 r fq4;
#X obj 934 326 r fq4;
#X msg 589 71 20300;
#X msg 805 86 20450;
#X floatatom 1025 123 5 0 0 0 - - -, f 5;
#X obj 1025 154 phasor~;
#X obj 1024 218 cos~;
#X obj 1075 204 +~;
#X floatatom 1089 74 5 0 0 0 - - -, f 5;
#X obj 1089 103 / 100;
#X obj 1089 149 vline~;
#X obj 1089 172 wrap~;
#X obj 1075 227 cos~;
#X obj 1089 126 pack f 30;
#X obj 1158 204 +~;
#X floatatom 1172 74 5 0 0 0 - - -, f 5;
#X obj 1172 103 / 100;
#X obj 1172 126 pack f 30;
#X obj 1172 149 vline~;
#X obj 1172 172 wrap~;
#X obj 1158 227 cos~;
#X obj 1101 292 +~;
#X obj 1106 396 dac~;
#X obj 1089 349 *~;
#X obj 1139 349 *~;
#X msg 1025 86 20600;
#X floatatom 1245 123 5 0 0 0 - - -, f 5;
#X obj 1245 154 phasor~;
#X obj 1244 218 cos~;
#X obj 1295 204 +~;
#X floatatom 1309 74 5 0 0 0 - - -, f 5;
#X obj 1309 103 / 100;
#X obj 1309 149 vline~;
#X obj 1309 172 wrap~;
#X obj 1295 227 cos~;
#X obj 1309 126 pack f 30;
#X obj 1378 204 +~;
#X floatatom 1392 74 5 0 0 0 - - -, f 5;
#X obj 1392 103 / 100;
#X obj 1392 126 pack f 30;
#X obj 1392 149 vline~;
#X obj 1392 172 wrap~;
#X obj 1378 227 cos~;
#X obj 1321 292 +~;
#X obj 1326 396 dac~;
#X obj 1309 349 *~;
#X obj 1359 349 *~;
#X floatatom 105 483 5 0 0 0 - - -, f 5;
#X obj 105 514 phasor~;
#X obj 104 578 cos~;
#X obj 155 564 +~;
#X floatatom 169 434 5 0 0 0 - - -, f 5;
#X obj 169 463 / 100;
#X obj 169 509 vline~;
#X obj 169 532 wrap~;
#X obj 155 587 cos~;
#X obj 169 486 pack f 30;
#X obj 238 564 +~;
#X floatatom 252 434 5 0 0 0 - - -, f 5;
#X obj 252 463 / 100;
#X obj 252 486 pack f 30;
#X obj 252 509 vline~;
#X obj 252 532 wrap~;
#X obj 238 587 cos~;
#X obj 181 652 +~;
#X obj 186 756 dac~;
#X obj 169 709 *~;
#X obj 219 709 *~;
#X msg 1245 86 20750;
#X msg 105 446 20900;
#X floatatom 325 486 5 0 0 0 - - -, f 5;
#X obj 325 517 phasor~;
#X obj 324 581 cos~;
#X obj 375 567 +~;
#X floatatom 389 437 5 0 0 0 - - -, f 5;
#X obj 389 466 / 100;
#X obj 389 512 vline~;
#X obj 389 535 wrap~;
#X obj 375 590 cos~;
#X obj 389 489 pack f 30;
#X obj 458 567 +~;
#X floatatom 472 437 5 0 0 0 - - -, f 5;
#X obj 472 466 / 100;
#X obj 472 489 pack f 30;
#X obj 472 512 vline~;
#X obj 472 535 wrap~;
#X obj 458 590 cos~;
#X obj 401 655 +~;
#X obj 406 759 dac~;
#X obj 389 712 *~;
#X obj 439 712 *~;
#X msg 325 449 21050;
#X floatatom 565 486 5 0 0 0 - - -, f 5;
#X obj 565 517 phasor~;
#X obj 564 581 cos~;
#X obj 615 567 +~;
#X floatatom 629 437 5 0 0 0 - - -, f 5;
#X obj 629 466 / 100;
#X obj 629 512 vline~;
#X obj 629 535 wrap~;
#X obj 615 590 cos~;
#X obj 629 489 pack f 30;
#X obj 698 567 +~;
#X floatatom 712 437 5 0 0 0 - - -, f 5;
#X obj 712 466 / 100;
#X obj 712 489 pack f 30;
#X obj 712 512 vline~;
#X obj 712 535 wrap~;
#X obj 698 590 cos~;
#X obj 641 655 +~;
#X obj 646 759 dac~;
#X obj 629 712 *~;
#X obj 679 712 *~;
#X msg 565 449 21200;
#X floatatom 805 491 5 0 0 0 - - -, f 5;
#X obj 805 522 phasor~;
#X obj 804 586 cos~;
#X obj 855 572 +~;
#X floatatom 869 442 5 0 0 0 - - -, f 5;
#X obj 869 471 / 100;
#X obj 869 517 vline~;
#X obj 869 540 wrap~;
#X obj 855 595 cos~;
#X obj 869 494 pack f 30;
#X obj 938 572 +~;
#X floatatom 952 442 5 0 0 0 - - -, f 5;
#X obj 952 471 / 100;
#X obj 952 494 pack f 30;
#X obj 952 517 vline~;
#X obj 952 540 wrap~;
#X obj 938 595 cos~;
#X obj 881 660 +~;
#X obj 886 764 dac~;
#X obj 869 717 *~;
#X obj 919 717 *~;
#X msg 805 454 21350;
#X floatatom 1035 491 5 0 0 0 - - -, f 5;
#X obj 1035 522 phasor~;
#X obj 1034 586 cos~;
#X obj 1085 572 +~;
#X floatatom 1099 442 5 0 0 0 - - -, f 5;
#X obj 1099 471 / 100;
#X obj 1099 517 vline~;
#X obj 1099 540 wrap~;
#X obj 1085 595 cos~;
#X obj 1099 494 pack f 30;
#X obj 1168 572 +~;
#X floatatom 1182 442 5 0 0 0 - - -, f 5;
#X obj 1182 471 / 100;
#X obj 1182 494 pack f 30;
#X obj 1182 517 vline~;
#X obj 1182 540 wrap~;
#X obj 1168 595 cos~;
#X obj 1111 660 +~;
#X obj 1116 764 dac~;
#X obj 1099 717 *~;
#X obj 1149 717 *~;
#X obj 1104 326 r fq5;
#X obj 1154 326 r fq5;
#X obj 1324 326 r fq6;
#X obj 1374 326 r fq6;
#X obj 184 686 r fq7;
#X obj 234 686 r fq7;
#X obj 404 689 r fq8;
#X obj 454 689 r fq8;
#X obj 644 689 r fq9;
#X obj 694 689 r fq9;
#X obj 884 693 r fq10;
#X obj 934 694 r fq10;
#X obj 1114 694 r fq11;
#X obj 1164 694 r fq11;
#X msg 1035 454 21500;
#X floatatom 1255 491 5 0 0 0 - - -, f 5;
#X obj 1255 522 phasor~;
#X obj 1254 586 cos~;
#X obj 1305 572 +~;
#X floatatom 1319 442 5 0 0 0 - - -, f 5;
#X obj 1319 471 / 100;
#X obj 1319 517 vline~;
#X obj 1319 540 wrap~;
#X obj 1305 595 cos~;
#X obj 1319 494 pack f 30;
#X obj 1388 572 +~;
#X floatatom 1402 442 5 0 0 0 - - -, f 5;
#X obj 1402 471 / 100;
#X obj 1402 494 pack f 30;
#X obj 1402 517 vline~;
#X obj 1402 540 wrap~;
#X obj 1388 595 cos~;
#X obj 1331 660 +~;
#X obj 1336 764 dac~;
#X obj 1319 717 *~;
#X obj 1369 717 *~;
#X msg 1255 454 21650;
#X obj 1334 694 r fq12;
#X obj 1384 694 r fq12;
#X floatatom 1515 61 5 0 0 0 - - -, f 5;
#X obj 1515 92 phasor~;
#X obj 1516 254 dac~;
#X obj 1499 207 *~;
#X obj 1549 207 *~;
#X obj 1514 184 r fq13;
#X obj 1564 184 r fq13;
#X floatatom 1515 316 5 0 0 0 - - -, f 5;
#X obj 1515 347 phasor~;
#X obj 1516 509 dac~;
#X obj 1499 462 *~;
#X obj 1549 462 *~;
#X floatatom 1515 571 5 0 0 0 - - -, f 5;
#X obj 1515 602 phasor~;
#X obj 1516 764 dac~;
#X obj 1499 717 *~;
#X obj 1549 717 *~;
#X msg 1515 24 19500;
#X msg 1515 279 19700;
#X msg 1515 534 19850;
#X obj 315 10 loadbang;
#X obj 775 10 loadbang;
#X obj 1215 10 loadbang;
#X obj 295 360 loadbang;
#X obj 765 360 loadbang;
#X obj 1215 360 loadbang;
#X obj 1425 280 loadbang;
#X obj 1548 127 +~;
#X floatatom 1622 37 5 0 0 0 - - -, f 5;
#X obj 1622 66 / 100;
#X obj 1622 112 vline~;
#X obj 1622 135 wrap~;
#X obj 1548 150 cos~;
#X obj 1622 89 pack f 30;
#X msg 1399 30 71;
#X msg 479 393 71;
#X msg 719 393 71;
#X obj 1516 387 +~;
#X floatatom 1592 257 5 0 0 0 - - -, f 5;
#X obj 1592 286 / 100;
#X obj 1592 332 vline~;
#X obj 1592 355 wrap~;
#X obj 1516 410 cos~;
#X obj 1592 309 pack f 30;
#X msg 196 12 33;
#X msg 263 13 80;
#X msg 507 28 53;
#X msg 735 23 19;
#X msg 959 30 69;
#X msg 138 387 16;
#X msg 259 390 62;
#X msg 959 398 74;
#X msg 1068 395 25;
#X msg 1189 398 74;
#X msg 1409 398 70;
#X floatatom 1592 427 5 0 0 0 - - -, f 5;
#X msg 1586 392 0.3;
#X floatatom 1556 682 5 0 0 0 - - -, f 5;
#X msg 1556 642 0.1;
#X msg 652 23 67;
#X msg 1179 30 74;
#X msg 1278 27 20;
#X msg 358 390 15;
#X msg 598 390 20;
#X msg 838 395 25;
#X msg 1616 2 8;
#X obj 1511 637 +~;
#X floatatom 1585 507 5 0 0 0 - - -, f 5;
#X obj 1585 559 pack f 30;
#X obj 1585 582 vline~;
#X obj 1585 605 wrap~;
#X obj 1511 660 cos~;
#X obj 1585 536 / 100;
#X msg 428 31 5;
#X msg 838 27 20;
#X msg 1058 27 25;
#X msg 1586 222 14;
#X msg 1288 395 22;
#X msg 1583 473 19;
#X connect 0 0 20 0;
#X connect 0 0 22 0;
#X connect 2 0 3 0;
#X connect 3 0 4 0;
#X connect 3 0 6 0;
#X connect 3 0 13 0;
#X connect 5 0 2 0;
#X connect 6 0 11 0;
#X connect 7 0 8 0;
#X connect 8 0 12 0;
#X connect 9 0 10 0;
#X connect 10 0 6 1;
#X connect 11 0 0 0;
#X connect 12 0 9 0;
#X connect 13 0 18 0;
#X connect 14 0 19 0;
#X connect 15 0 16 0;
#X connect 16 0 17 0;
#X connect 17 0 13 1;
#X connect 18 0 0 1;
#X connect 19 0 15 0;
#X connect 20 0 1 0;
#X connect 21 0 20 1;
#X connect 22 0 1 1;
#X connect 23 0 22 1;
#X connect 24 0 25 0;
#X connect 25 0 26 0;
#X connect 25 0 27 0;
#X connect 25 0 34 0;
#X connect 27 0 32 0;
#X connect 28 0 29 0;
#X connect 29 0 33 0;
#X connect 30 0 31 0;
#X connect 31 0 27 1;
#X connect 32 0 60 0;
#X connect 33 0 30 0;
#X connect 34 0 40 0;
#X connect 35 0 36 0;
#X connect 36 0 37 0;
#X connect 37 0 38 0;
#X connect 38 0 39 0;
#X connect 39 0 34 1;
#X connect 40 0 60 1;
#X connect 41 0 24 0;
#X connect 42 0 43 0;
#X connect 43 0 44 0;
#X connect 43 0 45 0;
#X connect 43 0 52 0;
#X connect 45 0 50 0;
#X connect 46 0 47 0;
#X connect 47 0 51 0;
#X connect 48 0 49 0;
#X connect 49 0 45 1;
#X connect 50 0 59 0;
#X connect 51 0 48 0;
#X connect 52 0 58 0;
#X connect 53 0 54 0;
#X connect 54 0 55 0;
#X connect 55 0 56 0;
#X connect 56 0 57 0;
#X connect 57 0 52 1;
#X connect 58 0 59 1;
#X connect 59 0 67 0;
#X connect 59 0 68 0;
#X connect 60 0 62 0;
#X connect 60 0 63 0;
#X connect 62 0 61 0;
#X connect 63 0 61 1;
#X connect 64 0 62 1;
#X connect 65 0 63 1;
#X connect 67 0 66 0;
#X connect 68 0 66 1;
#X connect 69 0 67 1;
#X connect 70 0 68 1;
#X connect 71 0 72 0;
#X connect 72 0 73 0;
#X connect 72 0 74 0;
#X connect 72 0 81 0;
#X connect 74 0 79 0;
#X connect 75 0 76 0;
#X connect 76 0 80 0;
#X connect 77 0 78 0;
#X connect 78 0 74 1;
#X connect 79 0 88 0;
#X connect 80 0 77 0;
#X connect 81 0 87 0;
#X connect 82 0 83 0;
#X connect 83 0 84 0;
#X connect 84 0 85 0;
#X connect 85 0 86 0;
#X connect 86 0 81 1;
#X connect 87 0 88 1;
#X connect 88 0 90 0;
#X connect 88 0 91 0;
#X connect 90 0 89 0;
#X connect 91 0 89 1;
#X connect 92 0 90 1;
#X connect 93 0 91 1;
#X connect 94 0 42 0;
#X connect 95 0 71 0;
#X connect 96 0 97 0;
#X connect 97 0 98 0;
#X connect 97 0 99 0;
#X connect 97 0 106 0;
#X connect 99 0 104 0;
#X connect 100 0 101 0;
#X connect 101 0 105 0;
#X connect 102 0 103 0;
#X connect 103 0 99 1;
#X connect 104 0 113 0;
#X connect 105 0 102 0;
#X connect 106 0 112 0;
#X connect 107 0 108 0;
#X connect 108 0 109 0;
#X connect 109 0 110 0;
#X connect 110 0 111 0;
#X connect 111 0 106 1;
#X connect 112 0 113 1;
#X connect 113 0 115 0;
#X connect 113 0 116 0;
#X connect 115 0 114 0;
#X connect 116 0 114 1;
#X connect 117 0 96 0;
#X connect 118 0 119 0;
#X connect 119 0 120 0;
#X connect 119 0 121 0;
#X connect 119 0 128 0;
#X connect 121 0 126 0;
#X connect 122 0 123 0;
#X connect 123 0 127 0;
#X connect 124 0 125 0;
#X connect 125 0 121 1;
#X connect 126 0 135 0;
#X connect 127 0 124 0;
#X connect 128 0 134 0;
#X connect 129 0 130 0;
#X connect 130 0 131 0;
#X connect 131 0 132 0;
#X connect 132 0 133 0;
#X connect 133 0 128 1;
#X connect 134 0 135 1;
#X connect 135 0 137 0;
#X connect 135 0 138 0;
#X connect 137 0 136 0;
#X connect 138 0 136 1;
#X connect 139 0 140 0;
#X connect 140 0 141 0;
#X connect 140 0 142 0;
#X connect 140 0 149 0;
#X connect 142 0 147 0;
#X connect 143 0 144 0;
#X connect 144 0 148 0;
#X connect 145 0 146 0;
#X connect 146 0 142 1;
#X connect 147 0 156 0;
#X connect 148 0 145 0;
#X connect 149 0 155 0;
#X connect 150 0 151 0;
#X connect 151 0 152 0;
#X connect 152 0 153 0;
#X connect 153 0 154 0;
#X connect 154 0 149 1;
#X connect 155 0 156 1;
#X connect 156 0 158 0;
#X connect 156 0 159 0;
#X connect 158 0 157 0;
#X connect 159 0 157 1;
#X connect 160 0 118 0;
#X connect 161 0 139 0;
#X connect 162 0 163 0;
#X connect 163 0 164 0;
#X connect 163 0 165 0;
#X connect 163 0 172 0;
#X connect 165 0 170 0;
#X connect 166 0 167 0;
#X connect 167 0 171 0;
#X connect 168 0 169 0;
#X connect 169 0 165 1;
#X connect 170 0 179 0;
#X connect 171 0 168 0;
#X connect 172 0 178 0;
#X connect 173 0 174 0;
#X connect 174 0 175 0;
#X connect 175 0 176 0;
#X connect 176 0 177 0;
#X connect 177 0 172 1;
#X connect 178 0 179 1;
#X connect 179 0 181 0;
#X connect 179 0 182 0;
#X connect 181 0 180 0;
#X connect 182 0 180 1;
#X connect 183 0 162 0;
#X connect 184 0 185 0;
#X connect 185 0 186 0;
#X connect 185 0 187 0;
#X connect 185 0 194 0;
#X connect 187 0 192 0;
#X connect 188 0 189 0;
#X connect 189 0 193 0;
#X connect 190 0 191 0;
#X connect 191 0 187 1;
#X connect 192 0 201 0;
#X connect 193 0 190 0;
#X connect 194 0 200 0;
#X connect 195 0 196 0;
#X connect 196 0 197 0;
#X connect 197 0 198 0;
#X connect 198 0 199 0;
#X connect 199 0 194 1;
#X connect 200 0 201 1;
#X connect 201 0 203 0;
#X connect 201 0 204 0;
#X connect 203 0 202 0;
#X connect 204 0 202 1;
#X connect 205 0 184 0;
#X connect 206 0 207 0;
#X connect 207 0 208 0;
#X connect 207 0 209 0;
#X connect 207 0 216 0;
#X connect 209 0 214 0;
#X connect 210 0 211 0;
#X connect 211 0 215 0;
#X connect 212 0 213 0;
#X connect 213 0 209 1;
#X connect 214 0 223 0;
#X connect 215 0 212 0;
#X connect 216 0 222 0;
#X connect 217 0 218 0;
#X connect 218 0 219 0;
#X connect 219 0 220 0;
#X connect 220 0 221 0;
#X connect 221 0 216 1;
#X connect 222 0 223 1;
#X connect 223 0 225 0;
#X connect 223 0 226 0;
#X connect 225 0 224 0;
#X connect 226 0 224 1;
#X connect 227 0 206 0;
#X connect 228 0 229 0;
#X connect 229 0 230 0;
#X connect 229 0 231 0;
#X connect 229 0 238 0;
#X connect 231 0 236 0;
#X connect 232 0 233 0;
#X connect 233 0 237 0;
#X connect 234 0 235 0;
#X connect 235 0 231 1;
#X connect 236 0 245 0;
#X connect 237 0 234 0;
#X connect 238 0 244 0;
#X connect 239 0 240 0;
#X connect 240 0 241 0;
#X connect 241 0 242 0;
#X connect 242 0 243 0;
#X connect 243 0 238 1;
#X connect 244 0 245 1;
#X connect 245 0 247 0;
#X connect 245 0 248 0;
#X connect 247 0 246 0;
#X connect 248 0 246 1;
#X connect 249 0 115 1;
#X connect 250 0 116 1;
#X connect 251 0 137 1;
#X connect 252 0 138 1;
#X connect 253 0 158 1;
#X connect 254 0 159 1;
#X connect 255 0 181 1;
#X connect 256 0 182 1;
#X connect 257 0 203 1;
#X connect 258 0 204 1;
#X connect 259 0 225 1;
#X connect 260 0 226 1;
#X connect 261 0 247 1;
#X connect 262 0 248 1;
#X connect 263 0 228 0;
#X connect 264 0 265 0;
#X connect 265 0 266 0;
#X connect 265 0 267 0;
#X connect 265 0 274 0;
#X connect 267 0 272 0;
#X connect 268 0 269 0;
#X connect 269 0 273 0;
#X connect 270 0 271 0;
#X connect 271 0 267 1;
#X connect 272 0 281 0;
#X connect 273 0 270 0;
#X connect 274 0 280 0;
#X connect 275 0 276 0;
#X connect 276 0 277 0;
#X connect 277 0 278 0;
#X connect 278 0 279 0;
#X connect 279 0 274 1;
#X connect 280 0 281 1;
#X connect 281 0 283 0;
#X connect 281 0 284 0;
#X connect 283 0 282 0;
#X connect 284 0 282 1;
#X connect 285 0 264 0;
#X connect 286 0 283 1;
#X connect 287 0 284 1;
#X connect 288 0 289 0;
#X connect 289 0 315 0;
#X connect 291 0 290 0;
#X connect 292 0 290 1;
#X connect 293 0 291 1;
#X connect 294 0 292 1;
#X connect 295 0 296 0;
#X connect 296 0 325 0;
#X connect 298 0 297 0;
#X connect 299 0 297 1;
#X connect 300 0 301 0;
#X connect 301 0 354 0;
#X connect 303 0 302 0;
#X connect 304 0 302 1;
#X connect 305 0 288 0;
#X connect 306 0 295 0;
#X connect 307 0 300 0;
#X connect 308 0 5 0;
#X connect 308 0 332 0;
#X connect 308 0 333 0;
#X connect 308 0 41 0;
#X connect 308 0 361 0;
#X connect 308 0 334 0;
#X connect 309 0 94 0;
#X connect 309 0 347 0;
#X connect 309 0 335 0;
#X connect 309 0 95 0;
#X connect 309 0 362 0;
#X connect 309 0 336 0;
#X connect 310 0 117 0;
#X connect 310 0 363 0;
#X connect 310 0 348 0;
#X connect 310 0 160 0;
#X connect 310 0 349 0;
#X connect 310 0 322 0;
#X connect 311 0 161 0;
#X connect 311 0 337 0;
#X connect 311 0 338 0;
#X connect 311 0 183 0;
#X connect 311 0 350 0;
#X connect 311 0 323 0;
#X connect 312 0 205 0;
#X connect 312 0 351 0;
#X connect 312 0 324 0;
#X connect 312 0 227 0;
#X connect 312 0 352 0;
#X connect 312 0 339 0;
#X connect 313 0 263 0;
#X connect 313 0 340 0;
#X connect 313 0 341 0;
#X connect 313 0 285 0;
#X connect 313 0 365 0;
#X connect 313 0 342 0;
#X connect 314 0 305 0;
#X connect 314 0 306 0;
#X connect 314 0 307 0;
#X connect 314 0 353 0;
#X connect 314 0 364 0;
#X connect 314 0 344 0;
#X connect 314 0 346 0;
#X connect 314 0 366 0;
#X connect 315 0 320 0;
#X connect 316 0 317 0;
#X connect 317 0 321 0;
#X connect 318 0 319 0;
#X connect 319 0 315 1;
#X connect 320 0 292 0;
#X connect 320 0 291 0;
#X connect 321 0 318 0;
#X connect 322 0 129 0;
#X connect 323 0 173 0;
#X connect 324 0 195 0;
#X connect 325 0 330 0;
#X connect 326 0 327 0;
#X connect 327 0 331 0;
#X connect 328 0 329 0;
#X connect 329 0 325 1;
#X connect 330 0 299 0;
#X connect 330 0 298 0;
#X connect 331 0 328 0;
#X connect 332 0 7 0;
#X connect 333 0 14 0;
#X connect 334 0 35 0;
#X connect 335 0 53 0;
#X connect 336 0 82 0;
#X connect 337 0 143 0;
#X connect 338 0 150 0;
#X connect 339 0 217 0;
#X connect 340 0 232 0;
#X connect 341 0 239 0;
#X connect 342 0 275 0;
#X connect 343 0 299 1;
#X connect 343 0 298 1;
#X connect 344 0 343 0;
#X connect 345 0 304 1;
#X connect 345 0 303 1;
#X connect 346 0 345 0;
#X connect 347 0 46 0;
#X connect 348 0 107 0;
#X connect 349 0 122 0;
#X connect 350 0 166 0;
#X connect 351 0 188 0;
#X connect 352 0 210 0;
#X connect 353 0 316 0;
#X connect 354 0 359 0;
#X connect 355 0 360 0;
#X connect 356 0 357 0;
#X connect 357 0 358 0;
#X connect 358 0 354 1;
#X connect 359 0 303 0;
#X connect 359 0 304 0;
#X connect 360 0 356 0;
#X connect 361 0 28 0;
#X connect 362 0 75 0;
#X connect 363 0 100 0;
#X connect 364 0 326 0;
#X connect 365 0 268 0;
#X connect 366 0 355 0;
#X restore 135 416 pd backbone;
#X obj 252 323 s fq5;
#X obj 287 323 s fq6;
#X obj 322 323 s fq7;
#X obj 357 323 s fq8;
#X obj 392 323 s fq9;
#X obj 427 323 s fq10;
#X obj 468 323 s fq11;
#X obj 508 323 s fq12;
#X obj 547 323 s fq13;
#X msg 539 259 0.1;
#X msg 121 123 high;
#X msg 546 230 0;
#X msg 545 199 0.3;
#X connect 4 0 19 0;
#X connect 5 0 20 0;
#X connect 6 0 21 0;
#X connect 7 0 22 0;
#X connect 8 0 23 0;
#X connect 9 0 31 0;
#X connect 10 0 32 0;
#X connect 11 0 33 0;
#X connect 12 0 34 0;
#X connect 13 0 35 0;
#X connect 14 0 36 0;
#X connect 15 0 37 0;
#X connect 16 0 38 0;
#X connect 17 0 39 0;
#X connect 18 0 19 0;
#X connect 19 0 3 0;
#X connect 19 1 2 0;
#X connect 19 2 5 0;
#X connect 19 3 6 0;
#X connect 19 4 7 0;
#X connect 19 5 8 0;
#X connect 19 6 9 0;
#X connect 19 7 10 0;
#X connect 19 8 11 0;
#X connect 19 9 12 0;
#X connect 19 10 13 0;
#X connect 19 11 14 0;
#X connect 19 12 15 0;
#X connect 19 13 16 0;
#X connect 19 14 17 0;
#X connect 24 0 25 0;
#X connect 24 0 29 0;
#X connect 25 0 18 0;
#X connect 26 0 28 0;
#X connect 27 0 26 0;
#X connect 27 0 25 0;
#X connect 28 0 19 0;
#X connect 29 0 26 0;
#X connect 40 0 17 0;
#X connect 41 0 19 0;
#X connect 42 0 17 0;
#X connect 43 0 17 0;
